<svg width="39" height="39" viewBox="0 0 39 39" fill="none" xmlns="http://www.w3.org/2000/svg">
<path d="M19.5 0C30.27 0 39 8.73 39 19.5C39 30.27 30.27 39 19.5 39C8.73 39 0 30.27 0 19.5C0 8.73 8.73 0 19.5 0Z" fill="#FDD600"/>
<mask id="mask0_1_464" style="mask-type:luminance" maskUnits="userSpaceOnUse" x="0" y="0" width="39" height="39">
<path d="M19.5 39C30.2696 39 39 30.2696 39 19.5C39 8.73045 30.2696 0 19.5 0C8.73045 0 0 8.73045 0 19.5C0 30.2696 8.73045 39 19.5 39Z" fill="white"/>
</mask>
<g mask="url(#mask0_1_464)">
<path d="M35.93 45.15C35.93 45.7 35.48 46.15 34.93 46.15C34.38 46.15 33.93 45.7 33.93 45.15C33.93 45.7 33.48 46.15 32.93 46.15C32.38 46.15 31.93 45.7 31.93 45.15V44.27C31.38 44.34 30.82 44.37 30.26 44.37H30.13C29.4 44.37 28.66 44.29 27.94 44.17V45.15C27.94 45.7 27.49 46.15 26.94 46.15C26.39 46.15 25.94 45.7 25.94 45.15C25.94 45.7 25.49 46.15 24.94 46.15C24.39 46.15 23.94 45.7 23.94 45.15C23.94 45.7 23.49 46.15 22.94 46.15C22.39 46.15 21.94 45.7 21.94 45.15V42.17C21.94 42.06 21.96 41.95 22 41.84C20.5 40.87 19.13 39.72 17.93 38.41L18.79 42.29C16.48 40.73 14.46 38.77 12.84 36.5C10.67 33.28 9.03999 29.01 12.03 26C11.94 25.29 11.9 24.58 11.9 23.87C11.76 19.47 13.87 15.29 17.49 12.79C16.48 12.35 15.52 11.82 14.62 11.2C12.27 9.54003 11.25 7.05003 11.44 6.43003C11.46 6.34003 11.54 6.28003 11.63 6.28003C11.78 6.30003 11.93 6.37003 12.04 6.48003C13.37 7.55003 22.46 9.01003 29.74 9.33003H30.12C30.66 9.33003 31.2 9.34003 31.72 9.37003C38.97 9.32003 47.92 7.32003 49.48 6.48003C49.65 6.38003 49.83 6.31003 50.02 6.28003C50.07 6.28003 50.13 6.30003 50.15 6.35003C50.31 6.70003 49.03 8.47003 46.64 11.2C45.76 12.13 44.69 12.87 43.5 13.35C45.01 14.54 46.22 16.06 47.06 17.79C47.94 19.69 48.39 21.77 48.36 23.87C48.36 24.63 48.31 25.39 48.21 26.15C51.02 29.15 49.41 33.34 47.27 36.5C45.65 38.77 43.63 40.73 41.32 42.29L42.11 38.73C40.87 40.05 39.46 41.2 37.92 42.14V45.16C37.92 45.71 37.47 46.16 36.92 46.16C36.65 46.16 36.4 46.06 36.21 45.87C36.03 45.68 35.94 45.42 35.94 45.16L35.93 45.15ZM27.57 29.63C27.38 29.9 27.34 30.24 27.45 30.55L29 34.69C29.14 35.08 29.52 35.34 29.93 35.34C30.35 35.34 30.72 35.09 30.87 34.69L32.42 30.55C32.54 30.24 32.49 29.9 32.3 29.63C32.12 29.36 31.81 29.2 31.48 29.2H28.38C28.05 29.2 27.74 29.36 27.55 29.63H27.57ZM32.14 23.28C32.14 26.86 35.04 29.76 38.62 29.76C42.2 29.76 45.1 26.86 45.1 23.28C45.1 19.7 42.2 16.8 38.62 16.8C35.04 16.8 32.14 19.7 32.13 23.28H32.14ZM15.19 23.28C15.19 26.86 18.09 29.76 21.67 29.76C25.25 29.76 28.15 26.86 28.15 23.28C28.15 19.7 25.25 16.8 21.67 16.8C18.09 16.8 15.19 19.7 15.18 23.28H15.19ZM34.14 23.28C34.14 20.8 36.15 18.8 38.63 18.79C41.11 18.79 43.11 20.8 43.12 23.28C43.12 23.73 43.05 24.18 42.92 24.62C42.87 23.28 41.77 22.22 40.43 22.23C39.05 22.23 37.94 23.35 37.94 24.72C37.94 26.1 39.06 27.21 40.43 27.21C40.58 27.21 40.73 27.2 40.87 27.17C40.19 27.56 39.42 27.77 38.63 27.77C36.15 27.77 34.14 25.76 34.14 23.28ZM17.19 23.28C17.19 20.8 19.2 18.8 21.68 18.79C24.16 18.79 26.16 20.8 26.17 23.28C26.17 23.73 26.1 24.18 25.97 24.62C25.92 23.28 24.82 22.23 23.48 22.23C22.1 22.23 20.99 23.35 20.99 24.72C20.99 26.1 22.11 27.21 23.48 27.21C23.63 27.21 23.78 27.2 23.93 27.17C23.25 27.56 22.48 27.77 21.69 27.77C20.5 27.77 19.35 27.3 18.51 26.46C17.67 25.62 17.19 24.48 17.19 23.28Z" fill="#FF7700"/>
</g>
</svg>
