<svg width="20" height="20" viewBox="0 0 20 20" fill="none" xmlns="http://www.w3.org/2000/svg">
<g clip-path="url(#clip0_1_545)">
<mask id="mask0_1_545" style="mask-type:luminance" maskUnits="userSpaceOnUse" x="0" y="0" width="20" height="20">
<path d="M20 0H0V20H20V0Z" fill="white"/>
</mask>
<g mask="url(#mask0_1_545)">
<path d="M3.96003 18.7C2.51003 18.7 1.34003 17.52 1.34003 16.08V3.93001C1.34003 2.48001 2.51003 1.31001 3.96003 1.31001H7.43003C7.92003 1.30001 8.33003 1.68001 8.34003 2.17001C8.35003 2.66001 7.97003 3.07001 7.47003 3.08001H3.95003C3.48003 3.08001 3.10003 3.46001 3.10003 3.93001V16.08C3.10003 16.55 3.48003 16.93 3.94003 16.93H7.41003C7.90003 16.93 8.30003 17.33 8.30003 17.82C8.30003 18.31 7.90003 18.71 7.41003 18.71H3.94003L3.96003 18.7ZM12.87 14.97C12.52 14.62 12.52 14.06 12.87 13.71L15.69 10.89H7.43003C6.94003 10.9 6.53003 10.52 6.52003 10.03C6.51003 9.54001 6.89003 9.13001 7.39003 9.12001H15.7L12.88 6.30001C12.53 5.95001 12.53 5.39001 12.88 5.04001C13.23 4.69001 13.79 4.69001 14.14 5.04001L19.11 10.01L18.48 10.64L14.14 14.98C13.8 15.33 13.24 15.33 12.89 14.98L12.87 14.97Z" fill="#919191"/>
</g>
</g>
<defs>
<clipPath id="clip0_1_545">
<rect width="20" height="20" fill="white"/>
</clipPath>
</defs>
</svg>
