<svg width="20" height="20" viewBox="0 0 20 20" fill="none" xmlns="http://www.w3.org/2000/svg">
<g clip-path="url(#clip0_1_549)">
<mask id="mask0_1_549" style="mask-type:luminance" maskUnits="userSpaceOnUse" x="0" y="0" width="20" height="20">
<path d="M20 0H0V20H20V0Z" fill="white"/>
</mask>
<g mask="url(#mask0_1_549)">
<path d="M3.96002 18.7C2.51002 18.7 1.34002 17.53 1.33002 16.08V12.61C1.34002 12.12 1.75002 11.73 2.24002 11.75C2.71002 11.76 3.09002 12.14 3.10002 12.61V16.08C3.10002 16.55 3.48002 16.93 3.95002 16.93H16.1C16.57 16.93 16.94 16.55 16.95 16.08V12.61C16.96 12.12 17.37 11.73 17.86 11.75C18.33 11.76 18.71 12.14 18.72 12.61V16.08C18.72 17.53 17.55 18.7 16.1 18.7H3.96002ZM5.06002 8.89997C4.71002 8.54997 4.71002 7.98997 5.06002 7.63997C5.41002 7.28997 5.97002 7.28997 6.32002 7.63997L9.14002 10.46V2.19997C9.15002 1.70997 9.56002 1.31997 10.05 1.33997C10.52 1.34997 10.9 1.72997 10.91 2.19997V10.47L13.73 7.64997C14.08 7.29997 14.64 7.29997 14.99 7.64997C15.34 7.99997 15.34 8.55997 14.99 8.90997L10.02 13.88L5.05002 8.90997L5.06002 8.89997Z" fill="#919191"/>
</g>
</g>
<defs>
<clipPath id="clip0_1_549">
<rect width="20" height="20" fill="white"/>
</clipPath>
</defs>
</svg>
