<svg width="20" height="20" viewBox="0 0 20 20" fill="none" xmlns="http://www.w3.org/2000/svg">
<g clip-path="url(#clip0_1_550)">
<mask id="mask0_1_550" style="mask-type:luminance" maskUnits="userSpaceOnUse" x="0" y="0" width="20" height="20">
<path d="M20 0H0V20H20V0Z" fill="white"/>
</mask>
<g mask="url(#mask0_1_550)">
<path d="M13.99 18.1H3.17997C1.91997 18.1 0.909973 17.08 0.909973 15.83V8.9C0.909973 7.64 1.92997 6.63 3.17997 6.63H13.99C15.25 6.63 16.26 7.65 16.27 8.9V15.83C16.27 17.09 15.25 18.1 13.99 18.1ZM3.17997 8.4C2.89997 8.4 2.67997 8.62 2.67997 8.9V15.83C2.67997 16.11 2.89997 16.33 3.17997 16.33H13.99C14.27 16.33 14.49 16.11 14.49 15.83V8.9C14.49 8.62 14.27 8.4 13.99 8.4H3.17997Z" fill="#919191"/>
<path d="M16.77 13.94H15.38C14.89 13.94 14.49 13.54 14.49 13.05C14.49 12.56 14.89 12.16 15.38 12.16H16.77C17.05 12.16 17.27 11.94 17.27 11.66V4.72995C17.27 4.44995 17.05 4.22995 16.77 4.22995H5.94998C5.66998 4.22995 5.44998 4.44995 5.44998 4.72995C5.44998 5.21995 5.04998 5.61995 4.55998 5.61995C4.06998 5.61995 3.66998 5.21995 3.66998 4.72995C3.66998 3.46995 4.68998 2.45995 5.94998 2.44995H16.76C18.02 2.44995 19.03 3.46995 19.04 4.72995V11.66C19.04 12.91 18.02 13.93 16.77 13.94Z" fill="#919191"/>
<path d="M14.44 11.5599H5.55998C5.06998 11.5599 4.66998 11.1599 4.66998 10.6699C4.66998 10.1799 5.06998 9.77991 5.55998 9.77991H14.45C14.94 9.77991 15.34 10.1799 15.34 10.6699C15.34 11.1599 14.94 11.5599 14.45 11.5599H14.44Z" fill="#919191"/>
<path d="M12.67 15.3299H9.33995C8.84995 15.3299 8.44995 14.9299 8.44995 14.4399C8.44995 13.9499 8.84995 13.5499 9.33995 13.5499H12.67C13.16 13.5499 13.56 13.9499 13.56 14.4399C13.56 14.9299 13.16 15.3299 12.67 15.3299Z" fill="#919191"/>
</g>
</g>
<defs>
<clipPath id="clip0_1_550">
<rect width="20" height="20" fill="white"/>
</clipPath>
</defs>
</svg>
