<svg width="20" height="20" viewBox="0 0 20 20" fill="none" xmlns="http://www.w3.org/2000/svg">
<g clip-path="url(#clip0_1_546)">
<mask id="mask0_1_546" style="mask-type:luminance" maskUnits="userSpaceOnUse" x="0" y="0" width="20" height="20">
<path d="M20 0H0V20H20V0Z" fill="white"/>
</mask>
<g mask="url(#mask0_1_546)">
<path d="M4.30001 19.25C3.83001 19.25 3.45001 18.87 3.45001 18.4V9.99999C3.45001 9.52999 3.83001 9.14999 4.30001 9.14999H4.94001V5.79999C4.98001 3.00999 7.28001 0.779988 10.07 0.819988C12.8 0.859988 15.01 3.06999 15.05 5.79999V9.14999H15.69C16.16 9.14999 16.54 9.52999 16.54 9.99999V18.4C16.54 18.87 16.16 19.25 15.69 19.25H4.30001ZM5.16001 17.55H14.84V10.86H5.16001V17.55ZM13.35 9.14999V5.79999C13.38 3.94999 11.91 2.42999 10.06 2.38999C8.21001 2.35999 6.69001 3.82999 6.65001 5.67999C6.65001 5.71999 6.65001 5.75999 6.65001 5.79999V9.14999H13.34H13.35ZM9.15001 15.27V13.13C9.15001 12.66 9.53001 12.28 10 12.28C10.47 12.28 10.85 12.66 10.85 13.13V15.27C10.85 15.74 10.47 16.12 10 16.12C9.53001 16.12 9.15001 15.74 9.15001 15.27Z" fill="#919191"/>
</g>
</g>
<defs>
<clipPath id="clip0_1_546">
<rect width="20" height="20" fill="white"/>
</clipPath>
</defs>
</svg>
